<svg width="24" height="24" viewBox="0 0 24 24" fill="none" xmlns="http://www.w3.org/2000/svg">
<path d="M4.44814 15.1165C4.10214 15.1165 3.75354 15.1165 3.40754 15.1165C3.05634 15.1165 2.69733 15.142 2.34873 15.1114C2.41897 15.1216 2.48661 15.1292 2.55685 15.1394C2.49702 15.1318 2.44499 15.1165 2.38776 15.0961C2.45019 15.1216 2.51263 15.1471 2.57506 15.1726C2.54385 15.1598 2.51523 15.142 2.48401 15.1267C2.36694 15.0706 2.6349 15.2644 2.52303 15.1547C2.41637 15.0502 2.58807 15.272 2.55945 15.2057C2.54385 15.17 2.52043 15.1369 2.50482 15.1012C2.53084 15.1624 2.55685 15.2236 2.58287 15.2848C2.56206 15.2312 2.54905 15.1777 2.53864 15.119C2.54905 15.1879 2.55685 15.2542 2.56726 15.323C2.55165 15.1318 2.56206 14.9329 2.56206 14.7417C2.56206 14.3134 2.56206 13.8877 2.56206 13.4594C2.56206 12.4982 2.56206 11.5396 2.56206 10.5785C2.56206 10.3414 2.54645 10.0992 2.56726 9.86463C2.55685 9.93346 2.54905 9.99975 2.53864 10.0686C2.54645 10.0099 2.56206 9.95896 2.58287 9.90287C2.55685 9.96406 2.53084 10.0252 2.50482 10.0864C2.51783 10.0558 2.53604 10.0278 2.55165 9.9972C2.60888 9.88248 2.41117 10.1451 2.52303 10.0354C2.62969 9.93092 2.40336 10.0992 2.471 10.0711C2.50742 10.0558 2.54124 10.0329 2.57766 10.0176C2.51523 10.0431 2.45279 10.0686 2.39036 10.0941C2.44499 10.0737 2.49962 10.0609 2.55945 10.0507C2.48921 10.0609 2.42157 10.0686 2.35133 10.0788C2.71034 10.0482 3.07975 10.0737 3.43616 10.0737C3.79517 10.0737 4.16458 10.0482 4.52098 10.0788C4.45074 10.0686 4.3831 10.0609 4.31286 10.0507C4.3727 10.0584 4.42473 10.0737 4.48196 10.0941C4.41953 10.0686 4.35709 10.0431 4.29465 10.0176C4.32587 10.0303 4.35449 10.0482 4.38571 10.0635C4.50277 10.1196 4.23482 9.92582 4.34668 10.0354C4.45335 10.14 4.28165 9.91817 4.31026 9.98445C4.32587 10.0201 4.34929 10.0533 4.36489 10.089C4.33888 10.0278 4.31286 9.96661 4.28685 9.90542C4.30766 9.95896 4.32067 10.0125 4.33107 10.0711C4.32067 10.0023 4.31286 9.93601 4.30246 9.86718C4.31807 10.0584 4.30766 10.2572 4.30766 10.4485C4.30766 10.8768 4.30766 11.3025 4.30766 11.7308C4.30766 12.692 4.30766 13.6506 4.30766 14.6117C4.30766 14.8488 4.32327 15.091 4.30246 15.3256C4.31286 15.2567 4.32067 15.1904 4.33107 15.1216C4.32327 15.1802 4.30766 15.2312 4.28685 15.2873C4.31286 15.2261 4.33888 15.1649 4.36489 15.1038C4.35189 15.1343 4.33368 15.1624 4.31807 15.193C4.26083 15.3077 4.45855 15.0451 4.34668 15.1547C4.24002 15.2593 4.46635 15.091 4.39871 15.119C4.36229 15.1343 4.32847 15.1573 4.29205 15.1726C4.35449 15.1471 4.41692 15.1216 4.47936 15.0961C4.42473 15.1165 4.3701 15.1292 4.31026 15.1394C4.3805 15.1292 4.44814 15.1216 4.51838 15.1114C4.49497 15.1139 4.47156 15.1165 4.44814 15.1165C4.03971 15.1267 3.64948 15.4607 3.66769 15.8813C3.6859 16.2867 4.01109 16.6589 4.44814 16.6462C5.2468 16.6232 5.86076 16.0063 5.86596 15.2236C5.86596 15.0477 5.86596 14.8718 5.86596 14.6958C5.86596 13.9565 5.86596 13.2197 5.86596 12.4804C5.86596 11.7767 5.86596 11.0731 5.86596 10.3694C5.86596 10.2267 5.86856 10.0839 5.86596 9.94111C5.84775 9.16098 5.21819 8.55166 4.41953 8.54401C3.77175 8.53892 3.12398 8.54401 2.47881 8.54401C1.66974 8.54401 1.02197 9.13549 1.00116 9.93601C0.998555 10.0609 1.00116 10.1884 1.00116 10.3133C1.00116 11.7512 1.00116 13.1891 1.00116 14.627C1.00116 14.8182 1.00116 15.012 1.00116 15.2032C1.00376 15.8507 1.4304 16.4779 2.10679 16.6079C2.41897 16.6691 2.74936 16.6436 3.06675 16.6436C3.45437 16.6436 3.84199 16.6436 4.22962 16.6436C4.30246 16.6436 4.3779 16.6436 4.45074 16.6436C4.85918 16.6436 5.2494 16.2918 5.23119 15.8788C5.21038 15.4658 4.88519 15.1165 4.44814 15.1165Z" fill="#323232"/>
<path d="M21.5808 15.1165C21.2374 15.1165 20.8966 15.1165 20.5532 15.1165C20.2072 15.1165 19.8508 15.142 19.5048 15.1114C19.5751 15.1216 19.6427 15.1292 19.7129 15.1394C19.6531 15.1318 19.6011 15.1165 19.5438 15.0961C19.6063 15.1216 19.6687 15.1471 19.7312 15.1726C19.6999 15.1598 19.6713 15.142 19.6401 15.1267C19.523 15.0706 19.791 15.2644 19.6791 15.1547C19.5725 15.0502 19.7442 15.272 19.7155 15.2057C19.6999 15.17 19.6765 15.1369 19.6609 15.1012C19.6869 15.1624 19.7129 15.2236 19.739 15.2848C19.7181 15.2312 19.7051 15.1777 19.6947 15.119C19.7051 15.1879 19.7129 15.2542 19.7233 15.323C19.7077 15.1318 19.7181 14.9329 19.7181 14.7417C19.7181 14.3134 19.7181 13.8877 19.7181 13.4594C19.7181 12.4982 19.7181 11.5396 19.7181 10.5785C19.7181 10.3414 19.7025 10.0992 19.7233 9.86463C19.7129 9.93346 19.7051 9.99975 19.6947 10.0686C19.7025 10.0099 19.7181 9.95896 19.739 9.90287C19.7129 9.96406 19.6869 10.0252 19.6609 10.0864C19.6739 10.0558 19.6921 10.0278 19.7077 9.9972C19.765 9.88248 19.5673 10.1451 19.6791 10.0354C19.7858 9.93092 19.5595 10.0992 19.6271 10.0711C19.6635 10.0558 19.6973 10.0329 19.7338 10.0176C19.6713 10.0431 19.6089 10.0686 19.5464 10.0941C19.6011 10.0737 19.6557 10.0609 19.7155 10.0507C19.6453 10.0609 19.5777 10.0686 19.5074 10.0788C19.8612 10.0482 20.2254 10.0737 20.5818 10.0737C20.9356 10.0737 21.3025 10.0482 21.6563 10.0788C21.586 10.0686 21.5184 10.0609 21.4481 10.0507C21.508 10.0584 21.56 10.0737 21.6172 10.0941C21.5548 10.0686 21.4924 10.0431 21.4299 10.0176C21.4612 10.0303 21.4898 10.0482 21.521 10.0635C21.6381 10.1196 21.3701 9.92582 21.482 10.0354C21.5886 10.14 21.4169 9.91817 21.4455 9.98445C21.4611 10.0201 21.4846 10.0533 21.5002 10.089C21.4742 10.0278 21.4481 9.96661 21.4221 9.90542C21.4429 9.95896 21.4559 10.0125 21.4664 10.0711C21.4559 10.0023 21.4481 9.93601 21.4377 9.86718C21.4533 10.0584 21.4429 10.2572 21.4429 10.4485C21.4429 10.8768 21.4429 11.3025 21.4429 11.7308C21.4429 12.692 21.4429 13.6506 21.4429 14.6117C21.4429 14.8488 21.4585 15.091 21.4377 15.3256C21.4481 15.2567 21.4559 15.1904 21.4664 15.1216C21.4585 15.1802 21.4429 15.2312 21.4221 15.2873C21.4481 15.2261 21.4742 15.1649 21.5002 15.1038C21.4872 15.1343 21.469 15.1624 21.4533 15.193C21.3961 15.3077 21.5938 15.0451 21.482 15.1547C21.3753 15.2593 21.6016 15.091 21.534 15.119C21.4976 15.1343 21.4638 15.1573 21.4273 15.1726C21.4898 15.1471 21.5522 15.1216 21.6146 15.0961C21.56 15.1165 21.5054 15.1292 21.4455 15.1394C21.5158 15.1292 21.5834 15.1216 21.6537 15.1114C21.6276 15.1139 21.6042 15.1165 21.5808 15.1165C21.1724 15.1267 20.7822 15.4607 20.8004 15.8813C20.8186 16.2867 21.1438 16.6589 21.5808 16.6462C22.3795 16.6232 22.9934 16.0063 22.9986 15.2236C22.9986 15.0477 22.9986 14.8718 22.9986 14.6958C22.9986 13.9667 22.9986 13.2376 22.9986 12.5059C22.9986 11.7946 22.9986 11.0833 22.9986 10.3694C22.9986 10.2267 23.0012 10.0839 22.9986 9.94111C22.983 9.16098 22.3561 8.54911 21.56 8.54401C20.92 8.53892 20.2775 8.54401 19.6375 8.54401C18.8284 8.54401 18.1781 9.13294 18.1598 9.93601C18.1572 10.0609 18.1598 10.1884 18.1598 10.3133C18.1598 11.7461 18.1598 13.1789 18.1598 14.6117C18.1598 14.808 18.1598 15.0043 18.1598 15.1981C18.1598 15.8354 18.5709 16.455 19.2291 16.6028C19.5412 16.6717 19.882 16.6462 20.1994 16.6462C20.587 16.6462 20.9721 16.6462 21.3597 16.6462C21.4325 16.6462 21.508 16.6462 21.5808 16.6462C21.9893 16.6462 22.3795 16.2943 22.3613 15.8813C22.3405 15.4658 22.0179 15.1165 21.5808 15.1165Z" fill="#323232"/>
<path d="M12.5751 20.4597C12.3617 20.4597 12.1484 20.4597 11.9351 20.4597C11.7062 20.4597 11.472 20.475 11.2431 20.447C11.3133 20.4572 11.381 20.4648 11.4512 20.475C11.3341 20.4572 11.2223 20.4291 11.1156 20.3858C11.1781 20.4113 11.2405 20.4368 11.3029 20.4623C11.2301 20.4317 11.1572 20.396 11.0896 20.3526C10.9309 20.2507 11.2041 20.4572 11.1104 20.373C11.0818 20.3475 11.0506 20.322 11.022 20.294C10.9934 20.2659 10.9673 20.2379 10.9413 20.2073C10.8529 20.1104 11.0532 20.3807 10.9725 20.2405C10.9283 20.1665 10.8867 20.0977 10.8503 20.0186C10.8763 20.0798 10.9023 20.141 10.9283 20.2022C10.8841 20.0951 10.8555 19.9855 10.8373 19.8733C10.8477 19.9422 10.8555 20.0085 10.8659 20.0773C10.8503 19.96 10.8503 19.8427 10.8659 19.7255C10.8555 19.7943 10.8477 19.8606 10.8373 19.9294C10.8555 19.8147 10.8841 19.7051 10.9283 19.6005C10.9023 19.6617 10.8763 19.7229 10.8503 19.7841C10.8815 19.7127 10.9179 19.6413 10.9621 19.575C11.0662 19.4195 10.8555 19.6872 10.9413 19.5954C10.9673 19.5674 10.9934 19.5368 11.022 19.5088C11.0506 19.4807 11.0792 19.4552 11.1104 19.4297C11.2093 19.343 10.9335 19.5394 11.0766 19.4603C11.152 19.417 11.2223 19.3762 11.3029 19.3405C11.2405 19.366 11.1781 19.3915 11.1156 19.417C11.2249 19.3736 11.3368 19.3456 11.4512 19.3277C11.381 19.3379 11.3133 19.3456 11.2431 19.3558C11.4902 19.3252 11.7478 19.343 11.9975 19.343C12.2473 19.343 12.5048 19.3252 12.752 19.3558C12.6817 19.3456 12.6141 19.3379 12.5438 19.3277C12.6609 19.3456 12.7728 19.3736 12.8794 19.417C12.817 19.3915 12.7546 19.366 12.6921 19.3405C12.765 19.3711 12.8378 19.4068 12.9055 19.4501C13.0641 19.5521 12.791 19.3456 12.8846 19.4297C12.9133 19.4552 12.9445 19.4807 12.9731 19.5088C13.0017 19.5368 13.0277 19.5648 13.0537 19.5954C13.1422 19.6923 12.9419 19.4221 13.0225 19.5623C13.0667 19.6362 13.1084 19.7051 13.1448 19.7841C13.1188 19.7229 13.0928 19.6617 13.0667 19.6005C13.111 19.7076 13.1396 19.8172 13.1578 19.9294C13.1474 19.8606 13.1396 19.7943 13.1292 19.7255C13.1448 19.8427 13.1448 19.96 13.1292 20.0773C13.1396 20.0085 13.1474 19.9422 13.1578 19.8733C13.1396 19.9881 13.111 20.0977 13.0667 20.2022C13.0928 20.141 13.1188 20.0798 13.1448 20.0186C13.1136 20.09 13.0772 20.1614 13.0329 20.2277C12.9289 20.3832 13.1396 20.1155 13.0537 20.2073C13.0277 20.2354 13.0017 20.2659 12.9731 20.294C12.9445 20.322 12.9159 20.3475 12.8846 20.373C12.7858 20.4597 13.0615 20.2634 12.9185 20.3424C12.843 20.3858 12.7728 20.4266 12.6921 20.4623C12.7546 20.4368 12.817 20.4113 12.8794 20.3858C12.7702 20.4291 12.6583 20.4572 12.5438 20.475C12.6141 20.4648 12.6817 20.4572 12.752 20.447C12.6947 20.4546 12.6349 20.4597 12.5751 20.4597C12.1666 20.4648 11.7764 20.8064 11.7946 21.2245C11.8128 21.635 12.138 21.9945 12.5751 21.9894C13.2879 21.9792 13.9096 21.6426 14.3259 21.0843C14.6901 20.5974 14.7915 19.932 14.6302 19.3532C14.4585 18.7337 13.9903 18.2289 13.3919 17.9791C13.0251 17.8287 12.6505 17.8108 12.2603 17.8108C11.9871 17.8108 11.714 17.8083 11.4408 17.8108C10.8659 17.8134 10.2935 18.0352 9.89292 18.4482C9.40904 18.9479 9.22433 19.6056 9.33099 20.2787C9.42465 20.8702 9.83308 21.4106 10.3586 21.7089C11.0246 22.0837 11.8362 21.9894 12.5751 21.9894C12.9835 21.9894 13.3737 21.6376 13.3555 21.2245C13.3373 20.8115 13.0121 20.4597 12.5751 20.4597Z" fill="#323232"/>
<path d="M13.9261 20.6642C14.9745 20.6642 16.0255 20.6642 17.0739 20.6642C17.3756 20.6642 17.68 20.6489 17.9688 20.5546C18.5723 20.3583 19.1082 19.9504 19.4074 19.3946C19.6025 19.0275 19.704 18.6323 19.7066 18.2193C19.7066 18.125 19.7066 18.0306 19.7066 17.9338C19.7066 16.8655 19.7066 15.7999 19.7066 14.7316C19.7066 13.4314 19.7066 12.1312 19.7066 10.831C19.7066 9.85964 19.7352 8.90105 19.5297 7.94246C19.1004 5.95388 17.7919 4.19476 16.0411 3.12399C14.2434 2.02518 11.9931 1.71415 9.95357 2.26993C7.95822 2.81296 6.21522 4.16927 5.23185 5.95643C4.71415 6.89463 4.41238 7.91696 4.32133 8.98008C4.28491 9.40329 4.29791 9.82905 4.29791 10.2523C4.29791 11.4658 4.29791 12.6768 4.29791 13.8903C4.29791 13.9796 4.29791 14.0713 4.29791 14.1606C4.29791 14.5608 4.65692 14.9432 5.07836 14.9254C5.50241 14.9076 5.85881 14.5889 5.85881 14.1606C5.85881 13.5614 5.85881 12.9598 5.85881 12.3607C5.85881 11.5168 5.85881 10.6729 5.85881 9.82905C5.85881 9.43898 5.86662 9.05402 5.91865 8.6665C5.90824 8.73534 5.90044 8.80162 5.89003 8.87046C5.97068 8.27643 6.13197 7.69771 6.3661 7.14448C6.34009 7.20566 6.31407 7.26685 6.28806 7.32804C6.42334 7.01701 6.57943 6.71362 6.75893 6.42553C6.85258 6.27767 6.94884 6.13235 7.0529 5.98958C7.07631 5.95898 7.09973 5.92584 7.12314 5.89525C7.13355 5.8825 7.15176 5.84936 7.16476 5.84171C7.17777 5.83406 7.0477 5.98958 7.09452 5.93094C7.15176 5.8621 7.20899 5.79072 7.26882 5.72188C7.48995 5.46439 7.72929 5.22474 7.98684 5.00294C8.05188 4.94685 8.11691 4.89331 8.18195 4.83977C8.21317 4.81428 8.24439 4.79133 8.2756 4.76584C8.39527 4.67151 8.12992 4.87292 8.25479 4.78369C8.39788 4.67916 8.54356 4.57973 8.69184 4.48795C9.02223 4.28144 9.37084 4.10298 9.72984 3.95511C9.66741 3.98061 9.60497 4.0061 9.54253 4.0316C10.1071 3.7996 10.6976 3.64408 11.3037 3.56505C11.2335 3.57525 11.1659 3.5829 11.0956 3.59309C11.6966 3.51661 12.3027 3.51661 12.9037 3.59309C12.8334 3.5829 12.7658 3.57525 12.6956 3.56505C13.3017 3.64408 13.8922 3.80215 14.4568 4.0316C14.3943 4.0061 14.3319 3.98061 14.2695 3.95511C14.5868 4.08769 14.8964 4.24065 15.1904 4.41657C15.3413 4.50835 15.4896 4.60268 15.6352 4.70465C15.6665 4.7276 15.7003 4.75054 15.7315 4.77349C15.7445 4.78369 15.7783 4.80153 15.7861 4.81428C15.7939 4.82703 15.6352 4.69955 15.6951 4.74544C15.7653 4.80153 15.8382 4.85762 15.9084 4.91626C16.1712 5.13296 16.4157 5.36751 16.642 5.61991C16.6993 5.68364 16.7539 5.74738 16.8085 5.81112C16.8345 5.84171 16.858 5.8723 16.884 5.9029C16.9802 6.02017 16.7747 5.76013 16.8658 5.8825C16.9724 6.02272 17.0739 6.16549 17.1675 6.31081C17.3782 6.63459 17.5604 6.97621 17.7112 7.32804C17.6852 7.26685 17.6592 7.20566 17.6332 7.14448C17.8699 7.69771 18.0286 8.27643 18.1093 8.87046C18.0989 8.80162 18.0911 8.73534 18.0807 8.6665C18.1457 9.156 18.1405 9.64549 18.1405 10.1375C18.1405 10.8208 18.1405 11.504 18.1405 12.1847C18.1405 13.0694 18.1405 13.9515 18.1405 14.8362C18.1405 15.6112 18.1405 16.3888 18.1405 17.1638C18.1405 17.5233 18.1431 17.8828 18.1405 18.2422C18.1405 18.3162 18.1353 18.3876 18.1275 18.4589C18.1379 18.3901 18.1457 18.3238 18.1561 18.255C18.1353 18.4029 18.0963 18.5456 18.0364 18.6858C18.0624 18.6247 18.0885 18.5635 18.1145 18.5023C18.0729 18.5941 18.026 18.6858 17.9688 18.77C17.9558 18.7878 17.9428 18.8057 17.9298 18.8261C17.8621 18.9255 18.039 18.6986 17.9792 18.7649C17.9428 18.8006 17.9116 18.8414 17.8751 18.8771C17.8439 18.9076 17.8075 18.9382 17.7737 18.9688C17.6774 19.0581 17.9038 18.8796 17.8387 18.9229C17.8205 18.9357 17.8023 18.9484 17.7815 18.9612C17.6904 19.0224 17.5942 19.0708 17.4953 19.1142C17.5578 19.0887 17.6202 19.0632 17.6826 19.0377C17.5421 19.0938 17.3939 19.1345 17.243 19.1549C17.3132 19.1447 17.3809 19.1371 17.4511 19.1269C17.0427 19.1753 16.6134 19.1396 16.2024 19.1396C15.5884 19.1396 14.9745 19.1396 14.3605 19.1396C14.2148 19.1396 14.0691 19.1396 13.9235 19.1396C13.515 19.1396 13.1248 19.4915 13.143 19.9045C13.1664 20.3149 13.489 20.6642 13.9261 20.6642Z" fill="#323232"/>
</svg>
