<svg width="24" height="24" viewBox="0 0 24 24" fill="none" xmlns="http://www.w3.org/2000/svg">
<path d="M12 22C17.5 22 22 17.5 22 12C22 6.5 17.5 2 12 2C6.5 2 2 6.5 2 12C2 17.5 6.5 22 12 22Z" stroke="#323232" stroke-width="1.5" stroke-linecap="round" stroke-linejoin="round"/>
<path d="M11.9998 13.5131L12.0003 13.513C13.1193 13.2332 13.9654 12.8108 14.5271 12.2384C15.103 11.6623 15.388 10.9102 15.388 9.992C15.388 9.38744 15.2338 8.85043 14.9232 8.38453C14.6136 7.92015 14.1831 7.55682 13.6353 7.29385C13.0861 7.03025 12.4522 6.9 11.736 6.9C10.9272 6.9 10.2557 7.01847 9.72633 7.26109C9.20904 7.49819 8.9 7.79468 8.9 8.168C8.9 8.32275 8.93589 8.4673 9.00821 8.59989C9.0799 8.73131 9.18091 8.84358 9.30918 8.93687L9.37218 8.98269L9.43202 8.93282C9.6748 8.7305 10.0029 8.56514 10.4207 8.43978L10.4207 8.43979L10.4222 8.43932C10.8505 8.30352 11.2723 8.236 11.688 8.236C12.453 8.236 12.992 8.41956 13.3283 8.76568L13.3282 8.76571L13.3303 8.76773C13.6846 9.11192 13.86 9.52352 13.86 10.008C13.86 10.5592 13.6774 11.0013 13.3154 11.3432C12.9584 11.6798 12.4371 11.9404 11.7431 12.1192L11.7428 12.1192L10.6397 12.407C10.6396 12.407 10.6394 12.4071 10.6393 12.4071C10.419 12.4622 10.2464 12.5433 10.1413 12.6616C10.037 12.7788 9.988 12.9264 9.988 13.096C9.988 13.2478 10.0173 13.3901 10.077 13.5214L10.0767 13.5215L10.0802 13.5279C10.1489 13.6537 10.2346 13.7681 10.3373 13.8707L10.3771 13.9105L10.4318 13.8971L11.9998 13.5131ZM10.3992 15.5715L10.399 15.5716C10.22 15.7626 10.132 16.0012 10.132 16.28C10.132 16.5588 10.22 16.7974 10.399 16.9884L10.399 16.9884L10.4013 16.9907C10.5928 17.1822 10.8379 17.276 11.128 17.276C11.4268 17.276 11.6735 17.1833 11.8558 16.9896C12.0457 16.7991 12.14 16.5602 12.14 16.28C12.14 16.0003 12.0461 15.7618 11.8569 15.5715C11.6752 15.367 11.4282 15.268 11.128 15.268C10.8359 15.268 10.5902 15.3685 10.3992 15.5715Z" fill="#323232" stroke="#323232" stroke-width="0.2"/>
</svg>
